<?xml version="1.0" encoding="UTF-8" standalone="no"?>
<svg width="765px" height="779px" viewBox="0 0 765 779" version="1.1" xmlns="http://www.w3.org/2000/svg" xmlns:xlink="http://www.w3.org/1999/xlink">
    <!-- Generator: Sketch 3.6.1 (26313) - http://www.bohemiancoding.com/sketch -->
    <title>2016-03-18-drugpal-logo</title>
    <desc>Created with Sketch.</desc>
    <defs></defs>
    <g id="Page-1" stroke="none" stroke-width="1" fill="none" fill-rule="evenodd">
        <g id="Druplicon.vector">
            <path d="M510.167,144.833 C470.417,120.083 432.917,110.333 395.417,85.583 C372.167,69.833 339.917,32.333 312.917,0.083 C307.667,51.833 291.917,72.833 273.917,87.833 C235.667,117.833 211.667,126.833 178.667,144.833 C150.917,159.083 0.167,249.083 0.167,442.583 C0.167,636.083 162.917,778.583 343.667,778.583 C524.417,778.583 681.167,647.333 681.167,448.583 C681.167,249.833 534.167,159.833 510.167,144.833 L510.167,144.833 Z" id="Shape" fill="#F8E81C"></path>
            <path d="M449.25,610.5 C461.25,610.5 474,611.25 483,617.25 C492,623.25 497.25,636.75 500.25,644.25 C503.25,651.75 500.25,656.25 494.25,659.25 C489,662.25 488.25,660.75 483,651 C477.75,641.25 473.25,631.5 447,631.5 C420.75,631.5 412.5,640.5 399.75,651 C387,661.5 382.5,665.25 378,659.25 C373.5,653.25 375,647.25 383.25,639.75 C391.5,632.25 405,620.25 417.75,615 C430.5,609.75 437.25,610.5 449.25,610.5 L449.25,610.5 L449.25,610.5 Z" id="Shape" fill="#FFFFFF"></path>
            <path d="M324.75,696 C339.75,708 362.25,717.75 410.25,717.75 C458.25,717.75 492,704.25 507,693 C513.75,687.75 516.75,692.25 517.5,695.25 C518.25,698.25 519.75,702.75 514.5,708 C510.75,711.75 476.25,735.75 435.75,739.5 C395.25,743.25 340.5,745.5 307.5,715.5 C302.25,710.25 303.75,702.75 307.5,699.75 C311.25,696.75 314.25,694.5 318.75,694.5 C323.25,694.5 322.5,694.5 324.75,696 L324.75,696 L324.75,696 Z" id="Shape" fill="#FFFFFF"></path>
            <path d="M141,639 C198,638.25 208.5,628.5 258.75,606 C530.25,484.5 580.5,373.5 590.25,348 C600,322.5 614.25,281.25 599.25,235.5 C596.354,226.668 594.244,219.576 592.72,213.87 C556.641,173.527 520.822,151.513 510,144.75 C471,120 432.75,110.25 395.25,85.5 C372,70.5 339.75,32.25 312.75,0 C307.5,51.75 292.5,73.5 273.75,87.75 C235.5,117.75 211.5,126.75 178.5,144.75 C150.75,159.75 0,249 0,442.5 C0,504.28 16.593,560.861 45.063,609.266 L52.5,609 C68.25,623.25 93,639.75 141,639 L141,639 Z" id="Shape" fill="#F8E81C"></path>
            <path d="M316.5,15 C327,45.75 325.5,61.5 325.5,68.25 C325.5,75 321.75,93 309.75,102 C304.5,105.75 303,108.75 303,109.5 C303,112.5 309.75,114.75 309.75,121.5 C309.75,129.75 306,146.25 266.25,186 C226.5,225.75 169.5,261 125.25,282.75 C81,304.5 60,303 54,292.5 C48,282 56.25,258.75 84,228 C111.75,197.25 199.5,153 199.5,153 L309,76.5 L315,47.25" id="Shape" fill-opacity="0.5" fill="#FFFFFF"></path>
            <path d="M316.5,14.25 C309.75,63.75 294.75,78.75 274.5,94.5 C240.75,120 207.75,135.75 200.25,139.5 C180.75,149.25 110.25,188.25 73.5,244.5 C62.25,261.75 73.5,268.5 75.75,270 C78,271.5 103.5,274.5 158.25,241.5 C213,208.5 237,189 267.75,156.75 C284.25,139.5 286.5,129.75 286.5,125.25 C286.5,120 282.75,117.75 276.75,116.25 C273.75,115.5 273,114 276.75,111.75 C280.5,109.5 296.25,102 300,99 C303.75,96 321.75,84 322.5,64.5 C323.25,45 321.75,31.5 316.5,14.25 L316.5,14.25 L316.5,14.25 Z" id="Shape" fill-opacity="0.7" fill="#FFFFFF"></path>
            <path d="M599.25,235.5 C614.25,281.25 600,322.5 590.25,348 C580.5,373.5 530.25,484.5 258.75,606 C208.5,628.5 198,638.25 141,639 C93,639.75 68.25,623.25 52.5,609 L45.063,609.266 C105.763,712.467 220.46,778.5 343.5,778.5 C524.25,778.5 681,647.25 681,448.5 C681,339.354 636.668,263.012 592.72,213.87 C594.244,219.576 596.354,226.668 599.25,235.5 L599.25,235.5 Z" id="Shape" fill-opacity="0.1" fill="#000000"></path>
        </g>
        <rect id="Rectangle-1" fill="#FFFFFF" transform="translate(286.706641, 526.581794) rotate(-128.000000) translate(-286.706641, -526.581794) " x="240.706641" y="396.581794" width="92" height="260" rx="100"></rect>
        <rect id="Rectangle-1" fill="#FFFFFF" transform="translate(532.761826, 506.284486) rotate(-216.000000) translate(-532.761826, -506.284486) " x="486.761826" y="376.284486" width="92" height="260" rx="100"></rect>
    </g>
</svg>